<?xml version="1.0"?><svg fill="#000000" xmlns="http://www.w3.org/2000/svg"  viewBox="0 0 128 128" width="64px" height="64px">    <path d="M 33.900391 24 C 32.300391 24 31 25.4 31 27 L 31 58.199219 C 31 58.999219 30.2 59.4 29.5 59 C 26.8 57.4 23.499609 56.699609 20.099609 57.099609 C 13.199609 57.999609 7.7996094 63.600391 7.0996094 70.400391 C 6.0996094 79.800391 13.799609 87.6 23.099609 87 C 30.999609 86.4 37 79.499609 37 71.599609 L 37 30.5 C 40.5 31.7 43 35.000391 43 38.900391 C 43 40.100391 43.700391 41.299219 44.900391 41.699219 C 47.000391 42.599219 49 41 49 39 C 49 30.7 42.200391 23.9 33.900391 24 z M 108.68359 36.244141 C 107.85547 36.262891 107.02422 36.35 106.19922 36.5 L 76.5 42.400391 C 70.4 43.700391 66 48.999219 66 55.199219 L 66 88.199219 C 66 88.999219 65.2 89.4 64.5 89 C 61.8 87.4 58.499609 86.699609 55.099609 87.099609 C 48.299609 87.999609 42.799609 93.500391 42.099609 100.40039 C 41.099609 109.80039 48.799609 117.6 58.099609 117 C 65.999609 116.4 72 109.59922 72 101.69922 L 72 69.5 L 116 60.699219 L 116 78.199219 C 116 78.999219 115.2 79.4 114.5 79 C 111.8 77.4 108.49961 76.699609 105.09961 77.099609 C 98.299609 77.999609 92.799609 83.500391 92.099609 90.400391 C 91.099609 99.800391 98.799609 107.6 108.09961 107 C 115.99961 106.4 122 99.599219 122 91.699219 L 122 49.199219 C 122 44.699219 119.70078 40.499609 115.80078 38.099609 C 113.62578 36.749609 111.16797 36.187891 108.68359 36.244141 z M 109.16797 42.167969 C 110.71953 42.205469 112.20039 42.750781 113.40039 43.800781 C 115.00039 45.100781 116 47.099219 116 49.199219 L 116 54.5 L 72 63.300781 L 72 55.199219 C 72 51.899219 74.399609 49.000781 77.599609 48.300781 L 107.59961 42.300781 C 108.12461 42.200781 108.65078 42.155469 109.16797 42.167969 z M 22 63 C 27 63 31 67 31 72 C 31 77 27 81 22 81 C 17 81 13 77 13 72 C 13 67 17 63 22 63 z M 107 83 C 112 83 116 87 116 92 C 116 97 112 101 107 101 C 102 101 98 97 98 92 C 98 87 102 83 107 83 z M 57 93 C 62 93 66 97 66 102 C 66 107 62 111 57 111 C 52 111 48 107 48 102 C 48 97 52 93 57 93 z"/></svg>